<?xml version="1.0" encoding="UTF-8" standalone="no"?>
<!-- Created with Inkscape (http://www.inkscape.org/) -->

<svg
   xmlns:dc="http://purl.org/dc/elements/1.1/"
   xmlns:cc="http://creativecommons.org/ns#"
   xmlns:rdf="http://www.w3.org/1999/02/22-rdf-syntax-ns#"
   xmlns:svg="http://www.w3.org/2000/svg"
   xmlns="http://www.w3.org/2000/svg"
   xmlns:sodipodi="http://sodipodi.sourceforge.net/DTD/sodipodi-0.dtd"
   xmlns:inkscape="http://www.inkscape.org/namespaces/inkscape"
   id="svg2"
   version="1.1"
   inkscape:version="0.91 r13725"
   xml:space="preserve"
   width="512"
   height="512"
   viewBox="0 0 511.99999 511.99999"
   sodipodi:docname="SIMBAD.svg"><metadata
     id="metadata8"><rdf:RDF><cc:Work
         rdf:about=""><dc:format>image/svg+xml</dc:format><dc:type
           rdf:resource="http://purl.org/dc/dcmitype/StillImage" /><dc:title></dc:title></cc:Work></rdf:RDF></metadata><defs
     id="defs6"><clipPath
       clipPathUnits="userSpaceOnUse"
       id="clipPath18"><path
         d="M 76.189,56.317 C 66.31,54.763 56.431,53.211 46.553,54.302 l 0,0 0,1.997 C 44.937,55.23 43.321,54.232 41.705,53.318 l 0,0 c -1.617,-0.92 -3.235,-1.757 -4.853,-2.5 l 0,0 c 1.618,-1.75 3.236,-3.407 4.853,-4.981 l 0,0 c 1.616,-1.581 3.232,-3.081 4.848,-4.509 l 0,0 0,2.01 c 9.878,-1.092 19.757,0.461 29.636,2.013 l 0,0 c 13.112,2.061 26.224,4.122 39.337,10e-4 l 0,0 0,10.965 c -5.542,1.741 -11.084,2.379 -16.626,2.379 l 0,0 c -7.571,0 -15.141,-1.19 -22.711,-2.379"
         id="path20"
         inkscape:connector-curvature="0" /></clipPath><linearGradient
       x1="0"
       y1="0"
       x2="1"
       y2="0"
       gradientUnits="userSpaceOnUse"
       gradientTransform="matrix(78.67334,0,0,-78.67334,36.852051,50.012207)"
       spreadMethod="pad"
       id="linearGradient26"><stop
         style="stop-opacity:1;stop-color:#5a4b96"
         offset="0"
         id="stop28" /><stop
         style="stop-opacity:1;stop-color:#5a4b96"
         offset="0.41079078"
         id="stop30" /><stop
         style="stop-opacity:1;stop-color:#ed0479"
         offset="1"
         id="stop32" /></linearGradient><clipPath
       clipPathUnits="userSpaceOnUse"
       id="clipPath40"><path
         d="M 105.821,72.866 C 95.943,73.957 86.065,72.404 76.188,70.852 l 0,0 c -13.112,-2.061 -26.224,-4.122 -39.336,0 l 0,0 0,-10.948 c 13.112,-4.122 26.225,-2.061 39.337,0 l 0,0 c 9.877,1.552 19.755,3.105 29.632,2.015 l 0,0 0,-2.01 c 1.616,1.069 3.232,2.066 4.848,2.981 l 0,0 c 1.619,0.916 3.238,1.75 4.857,2.489 l 0,0 c -1.619,1.756 -3.238,3.417 -4.857,4.996 l 0,0 c -1.616,1.575 -3.232,3.068 -4.848,4.49 l 0,0 0,-1.999 z"
         id="path42"
         inkscape:connector-curvature="0" /></clipPath><linearGradient
       x1="0"
       y1="0"
       x2="1"
       y2="0"
       gradientUnits="userSpaceOnUse"
       gradientTransform="matrix(78.67334,0,0,-78.67334,36.852051,66.194336)"
       spreadMethod="pad"
       id="linearGradient48"><stop
         style="stop-opacity:1;stop-color:#5a4b96"
         offset="0"
         id="stop50" /><stop
         style="stop-opacity:1;stop-color:#5a4b96"
         offset="0.41079078"
         id="stop52" /><stop
         style="stop-opacity:1;stop-color:#ed0479"
         offset="1"
         id="stop54" /></linearGradient><clipPath
       clipPathUnits="userSpaceOnUse"
       id="clipPath62"><path
         d="M 76.189,85.68 C 66.31,84.127 56.431,82.574 46.553,83.666 l 0,0 0,2.01 c -1.616,-1.07 -3.232,-2.069 -4.848,-2.986 l 0,0 C 40.088,81.777 38.47,80.945 36.852,80.207 l 0,0 c 1.618,-1.758 3.236,-3.423 4.853,-5.005 l 0,0 c 1.616,-1.576 3.232,-3.069 4.848,-4.492 l 0,0 0,2.003 c 9.878,-1.092 19.757,0.461 29.636,2.013 l 0,0 c 13.112,2.061 26.224,4.122 39.337,0.001 l 0,0 0,10.953 c -5.542,1.742 -11.084,2.379 -16.626,2.379 l 0,0 c -7.571,0 -15.141,-1.19 -22.711,-2.379"
         id="path64"
         inkscape:connector-curvature="0" /></clipPath><linearGradient
       x1="0"
       y1="0"
       x2="1"
       y2="0"
       gradientUnits="userSpaceOnUse"
       gradientTransform="matrix(78.67334,0,0,-78.67334,36.852051,79.385254)"
       spreadMethod="pad"
       id="linearGradient70"><stop
         style="stop-opacity:1;stop-color:#5a4b96"
         offset="0"
         id="stop72" /><stop
         style="stop-opacity:1;stop-color:#5a4b96"
         offset="0.41079078"
         id="stop74" /><stop
         style="stop-opacity:1;stop-color:#ed0479"
         offset="1"
         id="stop76" /></linearGradient><clipPath
       clipPathUnits="userSpaceOnUse"
       id="clipPath84"><path
         d="m 105.821,102.237 c -9.877,1.09 -19.755,-0.462 -29.632,-2.015 l 0,0 C 63.077,98.161 49.964,96.1 36.852,100.223 l 0,0 0,-10.954 c 13.112,-4.122 26.225,-2.061 39.337,0 l 0,0 c 9.877,1.553 19.755,3.105 29.632,2.015 l 0,0 0,-2.004 c 1.616,1.069 3.232,2.068 4.848,2.985 l 0,0 c 1.619,0.914 3.238,1.745 4.857,2.483 l 0,0 c -1.619,1.76 -3.238,3.425 -4.857,5.007 l 0,0 c -1.616,1.574 -3.232,3.065 -4.848,4.487 l 0,0 0,-2.005 z"
         id="path86"
         inkscape:connector-curvature="0" /></clipPath><linearGradient
       x1="0"
       y1="0"
       x2="1"
       y2="0"
       gradientUnits="userSpaceOnUse"
       gradientTransform="matrix(78.67334,0,0,-78.67334,36.852051,95.56543)"
       spreadMethod="pad"
       id="linearGradient92"><stop
         style="stop-opacity:1;stop-color:#5a4b96"
         offset="0"
         id="stop94" /><stop
         style="stop-opacity:1;stop-color:#5a4b96"
         offset="0.41079078"
         id="stop96" /><stop
         style="stop-opacity:1;stop-color:#ed0479"
         offset="1"
         id="stop98" /></linearGradient><clipPath
       clipPathUnits="userSpaceOnUse"
       id="clipPath106"><path
         d="m 0,151.333 152.377,0 L 152.377,0 0,0 0,151.333 Z"
         id="path108"
         inkscape:connector-curvature="0" /></clipPath></defs><sodipodi:namedview
     pagecolor="#ffffff"
     bordercolor="#666666"
     borderopacity="1"
     objecttolerance="10"
     gridtolerance="10"
     guidetolerance="10"
     inkscape:pageopacity="0"
     inkscape:pageshadow="2"
     inkscape:window-width="2279"
     inkscape:window-height="1146"
     id="namedview4"
     showgrid="false"
     inkscape:zoom="1.2475799"
     inkscape:cx="95.235626"
     inkscape:cy="190.76935"
     inkscape:window-x="0"
     inkscape:window-y="31"
     inkscape:window-maximized="0"
     inkscape:current-layer="g10" /><g
     id="g10"
     inkscape:groupmode="layer"
     inkscape:label="SIMBAD-icon"
     transform="matrix(1.25,0,0,-1.25,0,512.00001)"><g
       id="g3476"
       transform="matrix(4.0991067,0,0,4.0991067,-107.50684,-89.500127)"><g
         id="g14"><g
           clip-path="url(#clipPath18)"
           id="g16"><g
             id="g22"><g
               id="g24"><path
                 inkscape:connector-curvature="0"
                 id="path34"
                 style="fill:url(#linearGradient26);stroke:none"
                 d="M 76.189,56.317 C 66.31,54.763 56.431,53.211 46.553,54.302 l 0,0 0,1.997 C 44.937,55.23 43.321,54.232 41.705,53.318 l 0,0 c -1.617,-0.92 -3.235,-1.757 -4.853,-2.5 l 0,0 c 1.618,-1.75 3.236,-3.407 4.853,-4.981 l 0,0 c 1.616,-1.581 3.232,-3.081 4.848,-4.509 l 0,0 0,2.01 c 9.878,-1.092 19.757,0.461 29.636,2.013 l 0,0 c 13.112,2.061 26.224,4.122 39.337,10e-4 l 0,0 0,10.965 c -5.542,1.741 -11.084,2.379 -16.626,2.379 l 0,0 c -7.571,0 -15.141,-1.19 -22.711,-2.379" /></g></g></g></g><g
         id="g36"><g
           clip-path="url(#clipPath40)"
           id="g38"><g
             id="g44"><g
               id="g46"><path
                 inkscape:connector-curvature="0"
                 id="path56"
                 style="fill:url(#linearGradient48);stroke:none"
                 d="M 105.821,72.866 C 95.943,73.957 86.065,72.404 76.188,70.852 l 0,0 c -13.112,-2.061 -26.224,-4.122 -39.336,0 l 0,0 0,-10.948 c 13.112,-4.122 26.225,-2.061 39.337,0 l 0,0 c 9.877,1.552 19.755,3.105 29.632,2.015 l 0,0 0,-2.01 c 1.616,1.069 3.232,2.066 4.848,2.981 l 0,0 c 1.619,0.916 3.238,1.75 4.857,2.489 l 0,0 c -1.619,1.756 -3.238,3.417 -4.857,4.996 l 0,0 c -1.616,1.575 -3.232,3.068 -4.848,4.49 l 0,0 0,-1.999 z" /></g></g></g></g><g
         id="g58"><g
           clip-path="url(#clipPath62)"
           id="g60"><g
             id="g66"><g
               id="g68"><path
                 inkscape:connector-curvature="0"
                 id="path78"
                 style="fill:url(#linearGradient70);stroke:none"
                 d="M 76.189,85.68 C 66.31,84.127 56.431,82.574 46.553,83.666 l 0,0 0,2.01 c -1.616,-1.07 -3.232,-2.069 -4.848,-2.986 l 0,0 C 40.088,81.777 38.47,80.945 36.852,80.207 l 0,0 c 1.618,-1.758 3.236,-3.423 4.853,-5.005 l 0,0 c 1.616,-1.576 3.232,-3.069 4.848,-4.492 l 0,0 0,2.003 c 9.878,-1.092 19.757,0.461 29.636,2.013 l 0,0 c 13.112,2.061 26.224,4.122 39.337,0.001 l 0,0 0,10.953 c -5.542,1.742 -11.084,2.379 -16.626,2.379 l 0,0 c -7.571,0 -15.141,-1.19 -22.711,-2.379" /></g></g></g></g><g
         id="g80"><g
           clip-path="url(#clipPath84)"
           id="g82"><g
             id="g88"><g
               id="g90"><path
                 inkscape:connector-curvature="0"
                 id="path100"
                 style="fill:url(#linearGradient92);stroke:none"
                 d="m 105.821,102.237 c -9.877,1.09 -19.755,-0.462 -29.632,-2.015 l 0,0 C 63.077,98.161 49.964,96.1 36.852,100.223 l 0,0 0,-10.954 c 13.112,-4.122 26.225,-2.061 39.337,0 l 0,0 c 9.877,1.553 19.755,3.105 29.632,2.015 l 0,0 0,-2.004 c 1.616,1.069 3.232,2.068 4.848,2.985 l 0,0 c 1.619,0.914 3.238,1.745 4.857,2.483 l 0,0 c -1.619,1.76 -3.238,3.425 -4.857,5.007 l 0,0 c -1.616,1.574 -3.232,3.065 -4.848,4.487 l 0,0 0,-2.005 z" /></g></g></g></g><g
         id="g102"><g
           clip-path="url(#clipPath106)"
           id="g104"><g
             transform="translate(62.8062,46.8652)"
             id="g110"><path
               inkscape:connector-curvature="0"
               id="path112"
               style="fill:#3a3b3d;fill-opacity:1;fill-rule:nonzero;stroke:none"
               d="m 0,0 c 0,0 0.256,-1.836 2.838,-2.768 2.581,-0.918 6.994,-1.99 12.551,-2.318 5.563,-0.322 13.576,-0.912 17.83,-2.295 4.266,-1.379 4.29,-1.557 5.441,-2.355 1.138,-0.799 1.359,-2.612 1.359,-2.612 l 0.895,-5.047 1.311,-7.361 c 0,0 -0.229,1.817 -1.371,2.611 -1.139,0.805 -1.172,0.987 -5.426,2.368 -4.263,1.371 -12.267,1.955 -17.845,2.293 -5.563,0.328 -9.963,1.392 -12.545,2.322 -2.581,0.918 -2.841,2.754 -2.841,2.754 L 0,0 Z" /></g><g
             transform="translate(62.8062,46.8652)"
             id="g114"><path
               inkscape:connector-curvature="0"
               id="path116"
               style="fill:none;stroke:#ffffff;stroke-width:2.03900003;stroke-linecap:butt;stroke-linejoin:miter;stroke-miterlimit:10;stroke-dasharray:none;stroke-opacity:1"
               d="m 0,0 c 0,0 0.256,-1.836 2.838,-2.768 2.581,-0.918 6.994,-1.99 12.551,-2.318 5.563,-0.322 13.576,-0.912 17.83,-2.295 4.266,-1.379 4.29,-1.557 5.441,-2.355 1.138,-0.799 1.359,-2.612 1.359,-2.612 l 0.895,-5.047 1.311,-7.361 c 0,0 -0.229,1.817 -1.371,2.611 -1.139,0.805 -1.172,0.987 -5.426,2.368 -4.263,1.371 -12.267,1.955 -17.845,2.293 -5.563,0.328 -9.963,1.392 -12.545,2.322 -2.581,0.918 -2.841,2.754 -2.841,2.754 L 0,0 Z" /></g><g
             transform="translate(49.5815,121.4844)"
             id="g118"><path
               inkscape:connector-curvature="0"
               id="path120"
               style="fill:#3a3b3d;fill-opacity:1;fill-rule:nonzero;stroke:none"
               d="m 0,0 c 0,0 0.253,-1.852 2.829,-2.768 2.585,-0.923 7,-1.984 12.554,-2.312 5.572,-0.34 13.576,-0.918 17.827,-2.301 4.269,-1.379 4.311,-1.562 5.45,-2.361 1.132,-0.791 1.365,-2.612 1.365,-2.612 l 0.894,-5.042 1.306,-7.36 c 0,0 -0.226,1.807 -1.371,2.617 -1.139,0.787 -1.175,0.973 -5.437,2.356 -4.258,1.371 -12.253,1.967 -17.834,2.287 -5.563,0.336 -9.96,1.402 -12.551,2.328 -2.57,0.918 -2.838,2.758 -2.838,2.758 L 0,0 Z" /></g><g
             transform="translate(49.5815,121.4844)"
             id="g122"><path
               inkscape:connector-curvature="0"
               id="path124"
               style="fill:none;stroke:#ffffff;stroke-width:2.03900003;stroke-linecap:butt;stroke-linejoin:miter;stroke-miterlimit:10;stroke-dasharray:none;stroke-opacity:1"
               d="m 0,0 c 0,0 0.253,-1.852 2.829,-2.768 2.585,-0.923 7,-1.984 12.554,-2.312 5.572,-0.34 13.576,-0.918 17.827,-2.301 4.269,-1.379 4.311,-1.562 5.45,-2.361 1.132,-0.791 1.365,-2.612 1.365,-2.612 l 0.894,-5.042 1.306,-7.36 c 0,0 -0.226,1.807 -1.371,2.617 -1.139,0.787 -1.175,0.973 -5.437,2.356 -4.258,1.371 -12.253,1.967 -17.834,2.287 -5.563,0.336 -9.96,1.402 -12.551,2.328 -2.57,0.918 -2.838,2.758 -2.838,2.758 L 0,0 Z" /></g><g
             transform="translate(56.1997,84.0703)"
             id="g126"><path
               inkscape:connector-curvature="0"
               id="path128"
               style="fill:#3a3b3d;fill-opacity:1;fill-rule:nonzero;stroke:none"
               d="m 0,0 c 0,0 0.262,-1.83 2.844,-2.754 2.582,-0.922 6.994,-1.992 12.557,-2.32 5.569,-0.324 13.576,-0.916 17.827,-2.289 4.263,-1.389 4.293,-1.559 5.438,-2.362 1.145,-0.81 1.371,-2.617 1.371,-2.617 l 0.895,-5.045 1.299,-7.363 c 0,0 -0.214,1.818 -1.365,2.623 -1.145,0.799 -1.175,0.979 -5.426,2.356 -4.263,1.371 -12.27,1.964 -17.845,2.289 -5.563,0.334 -9.972,1.414 -12.557,2.332 -2.576,0.918 -2.832,2.748 -2.832,2.748 L 0,0 Z" /></g><g
             transform="translate(56.1997,84.0703)"
             id="g130"><path
               inkscape:connector-curvature="0"
               id="path132"
               style="fill:none;stroke:#ffffff;stroke-width:2.03900003;stroke-linecap:butt;stroke-linejoin:miter;stroke-miterlimit:10;stroke-dasharray:none;stroke-opacity:1"
               d="m 0,0 c 0,0 0.262,-1.83 2.844,-2.754 2.582,-0.922 6.994,-1.992 12.557,-2.32 5.569,-0.324 13.576,-0.916 17.827,-2.289 4.263,-1.389 4.293,-1.559 5.438,-2.362 1.145,-0.81 1.371,-2.617 1.371,-2.617 l 0.895,-5.045 1.299,-7.363 c 0,0 -0.214,1.818 -1.365,2.623 -1.145,0.799 -1.175,0.979 -5.426,2.356 -4.263,1.371 -12.27,1.964 -17.845,2.289 -5.563,0.334 -9.972,1.414 -12.557,2.332 -2.576,0.918 -2.832,2.748 -2.832,2.748 L 0,0 Z" /></g><g
             transform="translate(58.2744,72.4375)"
             id="g134"><path
               inkscape:connector-curvature="0"
               id="path136"
               style="fill:#3a3b3d;fill-opacity:1;fill-rule:nonzero;stroke:none"
               d="m 0,0 c 0,0 -0.394,1.811 1.714,3.572 2.102,1.746 5.882,4.266 10.986,6.492 5.128,2.213 12.438,5.528 15.961,8.282 3.527,2.758 3.482,2.939 4.287,4.084 0.805,1.14 0.394,2.922 0.394,2.922 l -0.898,5.056 -1.314,7.352 c 0,0 0.423,-1.774 -0.373,-2.916 -0.802,-1.145 -0.772,-1.33 -4.296,-4.092 C 22.946,28 15.619,24.687 10.506,22.467 5.396,20.248 1.622,17.727 -0.489,15.979 -2.593,14.217 -2.203,12.408 -2.203,12.408 L 0,0 Z" /></g><g
             transform="translate(58.2744,72.4375)"
             id="g138"><path
               inkscape:connector-curvature="0"
               id="path140"
               style="fill:none;stroke:#ffffff;stroke-width:2.03900003;stroke-linecap:butt;stroke-linejoin:miter;stroke-miterlimit:10;stroke-dasharray:none;stroke-opacity:1"
               d="m 0,0 c 0,0 -0.394,1.811 1.714,3.572 2.102,1.746 5.882,4.266 10.986,6.492 5.128,2.213 12.438,5.528 15.961,8.282 3.527,2.758 3.482,2.939 4.287,4.084 0.805,1.14 0.394,2.922 0.394,2.922 l -0.898,5.056 -1.314,7.352 c 0,0 0.423,-1.774 -0.373,-2.916 -0.802,-1.145 -0.772,-1.33 -4.296,-4.092 C 22.946,28 15.619,24.687 10.506,22.467 5.396,20.248 1.622,17.727 -0.489,15.979 -2.593,14.217 -2.203,12.408 -2.203,12.408 L 0,0 Z" /></g><g
             transform="translate(64.9287,34.8809)"
             id="g142"><path
               inkscape:connector-curvature="0"
               id="path144"
               style="fill:#3a3b3d;fill-opacity:1;fill-rule:nonzero;stroke:none"
               d="m 0,0 c 0,0 -0.394,1.824 1.711,3.572 2.111,1.752 5.891,4.274 11,6.498 5.116,2.219 12.426,5.528 15.95,8.276 3.529,2.767 3.488,2.951 4.305,4.084 0.793,1.158 0.375,2.933 0.375,2.933 l -0.888,5.057 -1.318,7.34 c 0,0 0.418,-1.766 -0.375,-2.916 C 29.961,33.701 29.987,33.514 26.467,30.75 22.949,28.006 15.621,24.707 10.505,22.479 5.393,20.244 1.627,17.734 -0.489,15.977 -2.588,14.232 -2.197,12.396 -2.197,12.396 L 0,0 Z" /></g><g
             transform="translate(64.9287,34.8809)"
             id="g146"><path
               inkscape:connector-curvature="0"
               id="path148"
               style="fill:none;stroke:#ffffff;stroke-width:2.03900003;stroke-linecap:butt;stroke-linejoin:miter;stroke-miterlimit:10;stroke-dasharray:none;stroke-opacity:1"
               d="m 0,0 c 0,0 -0.394,1.824 1.711,3.572 2.111,1.752 5.891,4.274 11,6.498 5.116,2.219 12.426,5.528 15.95,8.276 3.529,2.767 3.488,2.951 4.305,4.084 0.793,1.158 0.375,2.933 0.375,2.933 l -0.888,5.057 -1.318,7.34 c 0,0 0.418,-1.766 -0.375,-2.916 C 29.961,33.701 29.987,33.514 26.467,30.75 22.949,28.006 15.621,24.707 10.505,22.479 5.393,20.244 1.627,17.734 -0.489,15.977 -2.588,14.232 -2.197,12.396 -2.197,12.396 L 0,0 Z" /></g></g></g></g></g></svg>